# xmcd
#
# Track frame offsets:
#	150
#	16112
#	30890
#	46186
#	63136
#	88602
#	106859
#	122235
#	141532
#	156125
#	174775
#	193432
#	212670
#	228298
#	247519
#
# Disc length: 3555 seconds
#
# Revision: 1
# Processed by: cddbd v1.5.2PL0 Copyright (c) Steve Scherf et al.
# Submitted via: audiograbber 1.83.01
#
DISCID=b40de10f
DTITLE=Various Artist - CB-E9-08
DYEAR=2008
DGENRE=Karaoke
TTITLE0=Gretchen Wilson - You Don't Have To Go Home
TTITLE1=Bucky Covington - It's Good To Be Us
TTITLE2=Lost Trailers - Holler Back
TTITLE3=Carrie Underwood - All-American Girl
TTITLE4=Keith Urban - Everybody
TTITLE5=Lady Antebellum - Love Don't Live Here
TTITLE6=Ashton Shepherd - Takin' Off This Pain
TTITLE7=Tim McGraw - If You're Reading This
TTITLE8=Miranda Lambert - Kerosene
TTITLE9=James Otto - Just Got Started Lovin' You
TTITLE10=LeAnn Rimes - Nothin' Better To Do
TTITLE11=Montgomery Gentry - Back When I Knew It All
TTITLE12=Luke Bryan - Country Man
TTITLE13=Trisha Yearwood - This Is Me You're Talking To
TTITLE14=Rascal Flatts - Take Me There
EXTD=
EXTT0=
EXTT1=
EXTT2=
EXTT3=
EXTT4=
EXTT5=
EXTT6=
EXTT7=
EXTT8=
EXTT9=
EXTT10=
EXTT11=
EXTT12=
EXTT13=
EXTT14=
PLAYORDER=
